<svg xmlns="http://www.w3.org/2000/svg" viewBox="0 0 24 24" width="50px" style="width:50px;margin-right:-20px;"><defs><style>.cls-1{fill:none; margin-right: -20px;}.cls-2{fill:#e31837;}</style></defs><title>bofa_icon_mobile2_186rgb</title><g id="_24_X_24_BOX" data-name="24 X 24 BOX"><rect class="cls-1" width="24" height="24"/></g><g id="ICON_OUTLINES" data-name="ICON OUTLINES"><path class="cls-2" d="M18,4.034A2.068,2.068,0,0,0,15.9,2H8.1A2.07,2.07,0,0,0,6,4.038V19.966A2.068,2.068,0,0,0,8.1,22H15.9A2.07,2.07,0,0,0,18,19.963ZM15.9,21H8.1A1.067,1.067,0,0,1,7,19.966V4.038A1.069,1.069,0,0,1,8.1,3H15.9A1.068,1.068,0,0,1,17,4.034l0,15.929A1.069,1.069,0,0,1,15.9,21Z"/><path class="cls-2" d="M8,4V18h8L16,4ZM9,17V5h6l0,12Z"/></g></svg>