<svg xmlns="http://www.w3.org/2000/svg" viewBox="0 0 24 24"><defs><style>.cls-1{isolation:isolate;}.cls-2{fill:none;}.cls-3{fill:#e31837;mix-blend-mode:multiply;}</style></defs><title>bofa_icon_payment2_186rgb</title><g class="cls-1"><g id="Layer_2" data-name="Layer 2"><rect class="cls-2" width="24" height="24"/></g><g id="Adjusted_copy" data-name="Adjusted copy"><path class="cls-3" d="M14.9,10.5v-.3a2.529,2.529,0,0,0-2.4-2.26V6h-1V7.94A2.529,2.529,0,0,0,9.1,10.2c0,1.289.954,2.06,2.836,2.294C13.9,12.741,13.9,13.51,13.9,13.8c0,.705-.87,1.3-1.9,1.3s-1.9-.595-1.9-1.3v-.3h-1v.3a2.529,2.529,0,0,0,2.4,2.26V18h1V16.06a2.529,2.529,0,0,0,2.4-2.26c0-1.288-.956-2.061-2.84-2.3-1.96-.244-1.96-1.012-1.96-1.3,0-.7.87-1.3,1.9-1.3s1.9.595,1.9,1.3v.3Z" transform="translate(0 0)"/><path class="cls-3" d="M12,21A9,9,0,1,1,19.641,7.264l.849-.528a10,10,0,1,0,0,10.528l-.849-.528A8.949,8.949,0,0,1,12,21Z" transform="translate(0 0)"/><polygon class="cls-3" points="18.505 15.501 22 12 18.512 8.508 17.805 9.215 20.092 11.5 16 11.5 16 12.5 20.092 12.5 17.798 14.794 18.505 15.501"/></g></g></svg>