<svg xmlns="http://www.w3.org/2000/svg" viewBox="0 0 24 24">
    <defs>
        <style>
            .cls-2{fill:#e31837}
        </style>
    </defs>
    <g id="ICON_ART" data-name="ICON ART">
        <path fill="none" d="M0 0h24v24H0z"/>
        <path class="cls-2" d="M12 3.89a4.287 4.287 0 1 0 4.287 4.285A4.291 4.291 0 0 0 12 3.89zm0 7.573a3.287 3.287 0 1 1 3.287-3.288A3.287 3.287 0 0 1 12 11.463z"/>
        <path class="cls-2" d="M12.007 2a6.952 6.952 0 0 0-6.951 6.945c0 3.3 6.951 13.055 6.951 13.055s6.937-8.583 6.937-13.055A6.94 6.94 0 0 0 12.007 2zM6.056 8.945a5.944 5.944 0 1 1 11.888 0c0 2.955-3.715 8.488-5.893 11.372-2.586-3.771-5.995-9.403-5.995-11.372z"/>
    </g>
</svg>
