<svg data-name="Layer 1" xmlns="http://www.w3.org/2000/svg" viewBox="0 0 24 24">
    <path fill="none" d="M0 0h24v24H0z" data-name="24 X 24 BOX"/>
    <path d="M5.934 21l.284-4.189C3.57 15.382 2 13.082 2 10.6 2 6.411 6.487 3 12 3s10 3.411 10 7.6-4.485 7.6-10 7.6a13.04 13.04 0 0 1-1.576-.1zM12 4c-4.962 0-9 2.963-9 6.6 0 2.183 1.481 4.226 3.963 5.467l.3.149-.2 2.861 3.125-2.013.182.025a12.282 12.282 0 0 0 1.63.119c4.962 0 9-2.963 9-6.6S16.963 4 12 4z" fill="#e31837" data-name="ICON OUTLINE"/>
</svg>
